<?xml version="1.0" encoding="utf-8"?>
<!-- Generator: Adobe Illustrator 28.2.0, SVG Export Plug-In . SVG Version: 6.00 Build 0)  -->
<svg version="1.1" id="Layer_1" xmlns="http://www.w3.org/2000/svg" xmlns:xlink="http://www.w3.org/1999/xlink" x="0px" y="0px"
	 viewBox="0 0 64 80" style="enable-background:new 0 0 64 80;" xml:space="preserve">
<path d="M63,34L63,34c0.6,0,1-0.5,1-1c0-0.5-0.4-1-1-1c0,0,0,0,0,0c-0.3-0.1-1-1.3-1-3.5s0.7-3.4,1-3.5l0,0c0.6,0,1-0.5,0.9-1.1
	c0-0.5-0.4-0.8-0.8-0.9l-32.2-3.8c-1.3-0.1-2.5-0.1-3.8,0L3.9,22h0C2,22.1,1,24.8,1,27.5c-0.1,1.6,0.4,3.2,1.2,4.5
	c-0.8,1.3-1.3,2.9-1.2,4.5c-0.1,1.5,0.3,3,1.1,4.4C0.7,42.2,0,45.1,0,48c0,3.9,1.4,7.9,3.9,8l33.9,4c0,0,0.1,0,0.1,0
	c0,0,0.1,0,0.1,0L46,59v4c0,0.4,0.3,0.8,0.7,1c0.1,0,0.2,0,0.3,0c0.4,0,0.7-0.2,0.9-0.5l2.2-3.7l2.1,2.8c0.3,0.4,1,0.5,1.4,0.2
	c0.3-0.2,0.4-0.5,0.4-0.8v-3.9l9.1-1.1c0.5-0.1,0.9-0.6,0.9-1.1c-0.1-0.5-0.5-0.9-1-0.9c-0.7,0-2-2.3-2-6c0-3.7,1.2-5.8,2-6
	c0.6,0,1-0.4,1-1c0-0.5-0.4-0.9-0.9-1c0,0-0.1,0-0.1,0c-0.3-0.1-1-1.3-1-3.5C62,35.3,62.7,34.1,63,34z M32.3,57.3
	c-0.9-1.9-1.4-4-1.3-6.1c-0.1-2,0.3-4,1.2-5.9l3.3,0.4c-1,1.9-1.5,4.1-1.4,6.3c0,1.9,0.3,3.9,1.1,5.7L32.3,57.3z M28.3,56.8
	c-0.9-1.9-1.3-4-1.3-6.1c-0.1-2,0.3-4.1,1.2-5.9l1.9,0.2c-0.7,2-1.1,4-1.1,6.1c0,2,0.3,4,0.9,5.8L28.3,56.8z M12.1,54.9
	c-0.8-1.8-1.1-3.7-1.1-5.7c-0.1-2.2,0.4-4.3,1.4-6.2L26,44.6c0,0,0.1,0,0.1,0c0,0,0,0,0,0c-0.8,2-1.1,4.1-1.1,6.2
	c0,2,0.3,3.9,0.9,5.8L12.1,54.9z M8.1,54.5C7.3,52.7,7,50.7,7,48.8c-0.1-2.2,0.4-4.3,1.4-6.2l1.9,0.2C9.4,44.8,9,47,9,49.2
	c0,1.8,0.2,3.7,0.8,5.4L8.1,54.5z M4,40c-0.3-0.1-1-1.3-1-3.5c0-2.2,0.7-3.4,1-3.5l4.7,0.6c0,0,0,0,0,0l20.1,2.4
	c-0.4,1.3-0.7,2.7-0.6,4.1c0,1,0.1,1.9,0.3,2.9l-1.9-0.2C26.2,41.5,26,40.3,26,39c0-0.6,0.1-1.2,0.2-1.8c0.1-0.5-0.2-1.1-0.7-1.2
	c-0.5-0.1-1.1,0.2-1.2,0.7C24.1,37.5,24,38.3,24,39c0,1.1,0.1,2.3,0.4,3.4L12,40.9h0l-4-0.5c0,0,0,0,0,0L4,40z M9.6,24.7l3.9,0.5h0
	l22.2,2.6c-0.5,1.2-0.8,2.5-0.8,3.8c0,1.1,0.2,2.2,0.5,3.2l-21.6-2.5c-0.3-1-0.4-2.1-0.4-3.2c0-0.6,0-1.3,0.1-1.9
	c0.1-0.5-0.3-1-0.9-1.1c-0.5-0.1-1,0.3-1.1,0.9c-0.1,0.7-0.1,1.4-0.1,2.1c0,1,0.1,2,0.3,2.9l-2.2-0.3C9.1,30.5,9,29.2,9,28
	C9,26.9,9.2,25.7,9.6,24.7z M38,28L38,28c0,0,0.1,0,0.1,0l22.4-2.7c-0.4,1-0.5,2.1-0.5,3.2c0,1.3,0.2,2.6,0.8,3.8L38,35
	c-0.3-0.1-1-1.3-1-3.5C37,29.3,37.7,28.1,38,28z M30.7,43.1c-0.3-1-0.5-2.1-0.5-3.1c-0.1-1.3,0.2-2.6,0.7-3.8l4.8,0.6
	c-0.5,1.2-0.8,2.5-0.8,3.8c0,1.1,0.2,2.2,0.5,3.2L30.7,43.1z M38,44c-0.3-0.1-1-1.3-1-3.5c0-2.2,0.7-3.4,1-3.5c0,0,0.1,0,0.1,0
	l22.4-2.7c-0.4,1-0.5,2.1-0.5,3.2c0,1.3,0.2,2.6,0.8,3.8L38,44z M27.3,21.2c1.1-0.1,2.2-0.1,3.3,0L54.5,24L38,26l-24.2-2.9h0
	L12.5,23L27.3,21.2z M4,24l3.6,0.4C7.2,25.6,7,26.8,7,28c0,1.1,0.1,2.3,0.4,3.4L4,31c-0.3-0.1-1-1.3-1-3.5C3,25.3,3.7,24.1,4,24
	L4,24z M4,54c-0.7,0-2-2.3-2-6c0-3.7,1.3-6,2-6l2.3,0.3c-0.9,2-1.3,4.3-1.2,6.5c0,1.8,0.3,3.7,0.8,5.4L4.1,54C4.1,54,4,54,4,54z
	 M50.8,57.4c-0.2-0.3-0.5-0.4-0.9-0.4c-0.3,0-0.6,0.2-0.8,0.5L48,59.4v-8.6l4-0.5V59L50.8,57.4z M54,56.1v-6l0.6-0.1
	c0.5-0.1,0.9-0.6,0.9-1.1S54.9,48,54.4,48l-1.5,0.2h0l-6,0.7c0,0,0,0,0,0l-1.2,0.2c-0.5,0.1-0.9,0.6-0.9,1.1c0.1,0.5,0.5,0.9,1,0.9
	c0,0,0.1,0,0.1,0l0.2,0v6l-8,1l-0.1,0c-0.7-0.2-1.9-2.3-1.9-6c0-3.7,1.3-6,2-6c0,0,0.1,0,0.1,0l22-2.6C59.3,45.1,59,47.1,59,49
	c-0.1,2.2,0.4,4.4,1.4,6.3L54,56.1z"/>
</svg>
